<?xml version="1.0" encoding="utf-8"?>
<!-- Generator: Adobe Illustrator 15.0.2, SVG Export Plug-In . SVG Version: 6.00 Build 0)  -->
<!DOCTYPE svg PUBLIC "-//W3C//DTD SVG 1.1//EN" "http://www.w3.org/Graphics/SVG/1.1/DTD/svg11.dtd">
<svg version="1.1" id="Layer_1" xmlns="http://www.w3.org/2000/svg" xmlns:xlink="http://www.w3.org/1999/xlink" x="0px" y="0px"
	 width="2800px" height="2800px" viewBox="0 0 2800 2800" enable-background="new 0 0 2800 2800" xml:space="preserve">
<g>
	<defs>
		<rect id="SVGID_1_" width="2800" height="2800"/>
	</defs>
	<clipPath id="SVGID_2_">
		<use xlink:href="#SVGID_1_"  overflow="visible"/>
	</clipPath>
	<path clip-path="url(#SVGID_2_)" fill-rule="evenodd" clip-rule="evenodd" fill="#C42A2B" d="M879.408,1390.265
		c0,96.75,0.138,296,0.138,296s-86.502-0.023-126.786,0.082c-4.489,0.007-6.872,0.252-5.338-6.005
		c2.298-9.372,4.265-19.155,7.469-27.977c2.122-5.844,5.241-10.942,7.444-16.512c2.302-5.814,6.336-12.029,1.66-18.827
		c-2.173-3.167-4.587-5.339-8.635-5.176c-8.573,0.345-17.162,1.06-25.717,0.795c-6.21-0.186-12.714-0.085-18.247-4.046
		c-4.425-3.164-6.256-6.485-9.051-12.415c-1.726-3.66-2.442-6.129-2.842-9.799c-1.005-9.217,2.249-13.657,5.294-19.848
		c5.829-11.851,11.624-22.12,17.867-32.878c5.584-9.623,12.827-18.289,19.391-27.336c11.743-16.177,23.752-32.205,33.866-49.446
		c3.918-6.676,8.181-13.621,7.407-22.375c-0.781-8.847-4.462-13.378-12.623-16.859c-7.263-3.094-14.767-5.554-22.161-8.013
		c-7.987-2.657-16.111-5.037-24.1-7.866c-7.632-2.703-15.252-5.31-22.866-8.156c-1.996-0.746-1.644-0.622-3.473-1.209
		c-0.573-0.184-3.692-0.89-3.762-1.259c-0.162-0.844,0.647-0.889,1.234-1.109c5.999-2.251,11.033-3.756,16.537-5.736
		c5.989-2.155,12.163-4.076,18.316-5.758c4.9-1.339,9.72-2.936,14.606-4.31c5.715-1.606,11.366-3.449,17.046-5.186
		c4.994-1.527,10.104-2.916,14.998-4.516c8.632-2.822,17.748-5.195,21.505-13.748c0.517-1.177,0.75-2.611,0.889-3.954
		c1.135-10.837-1.698-20.822-5.442-30.95c-2.75-7.443-5.601-14.92-7.936-22.56c-2.438-7.976-5.795-15.667-8.285-23.628
		c-1.357-4.346-2.603-8.874-3.726-13.123c-1.838-6.951-3.178-13.781-4.649-20.449c-2.67-12.102-3.295-24.021-3.397-36.139
		c-0.069-8.351,1.674-16.247,7.236-22.996c3.467-4.208,7.099-6.853,12.829-8.463c10.68-3,25.52-3.515,40.042-2.178
		c8.177,0.753,17.732,0.923,20.459-7.923c1.015-3.291,0.526-7.372,0.578-11.03c0.149-10.551-0.691-20.045-0.214-32.101
		c0.178-4.487,0.545-9.524,0.576-14.341c0.046-6.884,0.004-6.884,7.11-6.882c6.197,0,24.888,0.134,24.888,0.134
		s0.006,3.228-0.004,5.815c-0.201,65.246-0.132,130.493-0.132,195.741V1390.265z"/>
	<path clip-path="url(#SVGID_2_)" fill-rule="evenodd" clip-rule="evenodd" fill="#C42A2B" d="M735.789,1094.061
		c-14.538,4.643-27.112,12.524-38.714,21.756c-9.016,7.173-16.059,16.18-22.051,26.303c-5.76,9.721-9.635,19.965-11.518,30.739
		c-0.983,5.627-0.969,11.637-1.026,17.47c-0.08,8.429-0.634,17,0.64,25.259c1.339,8.679,2.627,17.432,4.99,26.021
		c1.597,5.806,2.757,11.831,4.414,17.671c1.717,6.054,3.96,12.618,5.413,17.83c1.041,3.734,2.21,7.502,3.192,11.153
		c2.373,8.813,4.79,17.518,7.705,26.272c1.31,3.934,0.966,2.669,3.067,10.72c1.802,6.906-1.418,10.151-8.207,12.175
		c-9.051,2.697-17.968,5.726-26.873,8.965c-7.453,2.711-15.11,5.165-22.781,7.365c-6.61,1.895-11.986,8.472-13.65,15.025
		c-2.341,9.22-3.519,17.742-4.868,27.048c-0.604,4.167-1.018,8.825-1.332,13.282c-1.018,14.424,3.936,15.239,14.787,19.709
		c7.319,3.02,14.729,5.794,22.112,8.703c3.719,1.466,7.673,2.826,11.349,4.254c3.235,1.257,6.064,2.438,8.573,4.125
		c2.685,1.803,1.633,4.901-0.179,7.702c-7.473,11.561-16.215,22.144-24.817,32.835c-12.469,15.488-24.241,31.541-33.894,48.882
		c-6.146,11.041-10.32,23.152-14.826,35.085c-6.512,17.236-8.302,34.808-5.441,52.141c0.856,5.189,2.493,9.838,3.927,14.665
		c2.453,8.252,6.012,16.253,11.395,23.267c8.319,10.838,18.791,18.688,31.551,23.518c0.753,0.287,1.936,0.244,1.821,1.347
		c-0.125,1.188-1.354,0.811-2.086,0.819c-7.916,0.08-15.835,0.108-23.754,0.112c-16.871,0.014-55.885-0.013-55.885-0.013
		s0.309-176.078,0.309-261.638c0-108.286-0.309-330.435-0.309-330.435s115.598-0.133,170.343-0.133H735.789z"/>
	<path clip-path="url(#SVGID_2_)" d="M1050.408,1213.489v216.623c0,34.472,18.1,51.705,54.319,51.705h85.734v-268.328h93.587v359.95
		c0,37.962-9.929,63.259-29.777,75.917c-19.858,12.648-32.181,20.174-36.979,22.579c-4.804,2.394-10.256,4.685-16.36,6.871
		c-6.983,1.741-15.165,3.271-24.542,4.582c-9.386,1.308-20.185,1.964-32.397,1.964H961.402v-75.915h189.792
		c10.47,0,19.634-3.713,27.487-11.13c7.854-7.424,11.78-16.359,11.78-26.832v-13.743h-107.33c-21.822,0-39.381-2.392-52.684-7.198
		c-13.313-4.797-29.123-16.361-47.448-34.688c-18.324-18.321-27.487-44.501-27.487-78.531v-223.825H1050.408z"/>
	<path clip-path="url(#SVGID_2_)" d="M1424.1,1557.731c-28.796,0-52.91-9.489-72.315-28.467
		c-19.42-18.981-29.124-42.429-29.124-70.357c0-29.665,9.049-54.204,27.16-73.625c18.099-19.408,40.904-29.122,68.391-29.122
		h162.957v-18.324c0-15.269-5.238-27.263-15.707-35.997c-10.467-8.722-25.52-13.088-45.153-13.088h-174.743v-75.263h149.215h28.144
		h30.102c17.885,0,33.921,2.843,48.106,8.53c14.175,5.684,27.26,14.203,39.267,25.574c11.99,11.37,20.826,26.013,26.502,43.93
		c5.669,17.926,8.51,41.312,8.51,70.159v196.05H1424.1z M1581.168,1481.816v-60.864H1462.06c-11.353,0-20.944,3.271-28.796,9.815
		c-7.854,6.546-11.783,14.623-11.783,24.213c0,7.425,3.488,13.743,10.474,18.982c6.974,5.233,15.707,7.854,26.178,7.854H1581.168z"
		/>
	<path clip-path="url(#SVGID_2_)" d="M1723.18,1213.489h94.893v47.121c6.109-15.892,15.813-28.918,29.129-39.083
		c13.302-10.154,30.858-15.237,52.683-15.237c5.233,0,12.431,0.879,21.597,2.638v80.477h-103.408v268.327h-94.893V1213.489z"/>
	<path clip-path="url(#SVGID_2_)" d="M2032.729,1557.731c-28.794,0-52.91-9.489-72.316-28.467
		c-19.42-18.981-29.124-42.429-29.124-70.357c0-29.665,9.05-54.204,27.159-73.625c18.101-19.408,40.903-29.122,68.393-29.122
		h162.959v-18.324c0-15.269-5.238-27.263-15.707-35.997c-10.473-8.722-25.523-13.088-45.158-13.088h-174.74v-75.263h149.217h28.139
		h30.105c17.887,0,33.92,2.843,48.102,8.53c14.178,5.684,27.264,14.203,39.27,25.574c11.994,11.37,20.83,26.013,26.506,43.93
		c5.662,17.926,8.506,41.312,8.506,70.159v196.05H2032.729z M2189.799,1481.816v-60.864h-119.115
		c-11.346,0-20.941,3.271-28.793,9.815c-7.855,6.546-11.78,14.623-11.78,24.213c0,7.425,3.489,13.743,10.473,18.982
		c6.975,5.233,15.707,7.854,26.176,7.854H2189.799z"/>
</g>
</svg>
